<?xml version="1.0" encoding="utf-8"?>
<svg version="1.1" id="Layer_1" xmlns="http://www.w3.org/2000/svg" xmlns:xlink="http://www.w3.org/1999/xlink" x="50%" y="50%"
	 viewBox="0 0 374 125" style="enable-background:new 0 0 374 125;" xml:space="preserve">
<g>
	<path d="M6.7,109.2v15.1H4v-15.1H0v-2.5h10.7v2.5H6.7z"/>
	<path d="M23.2,109.2h-7v4.2H23v2.5h-6.8v5.9h7v2.5h-9.7v-17.6h9.7V109.2z"/>
	<path d="M39.7,107.6v3.1c-1.5-1.3-3.1-1.9-4.8-1.9c-1.8,0-3.3,0.6-4.6,1.9c-1.2,1.3-1.9,2.9-1.9,4.7c0,1.8,0.6,3.4,1.9,4.7
		c1.2,1.3,2.8,1.9,4.6,1.9c0.9,0,1.7-0.2,2.4-0.5c0.4-0.2,0.7-0.4,1.1-0.6c0.4-0.3,0.8-0.6,1.2-0.9v3.2c-1.5,0.9-3.1,1.3-4.8,1.3
		c-2.5,0-4.7-0.9-6.4-2.6c-1.8-1.8-2.6-3.9-2.6-6.4c0-2.2,0.7-4.2,2.2-6c1.8-2.1,4.2-3.2,7.1-3.2C36.7,106.4,38.2,106.8,39.7,107.6z
		"/>
	<path d="M46.2,113.6h7.6v-6.9h2.6v17.6h-2.6v-8.2h-7.6v8.2h-2.6v-17.6h2.6V113.6z"/>
	<path d="M79.5,115.4c0-2.5,0.9-4.6,2.7-6.4c1.8-1.8,4-2.7,6.5-2.7c2.5,0,4.6,0.9,6.4,2.7c1.8,1.8,2.7,3.9,2.7,6.4
		c0,2.5-0.9,4.7-2.7,6.4c-1.8,1.8-4,2.6-6.6,2.6c-2.3,0-4.3-0.8-6.1-2.4C80.5,120.5,79.5,118.2,79.5,115.4z M82.2,115.4
		c0,1.9,0.7,3.5,2,4.8c1.3,1.3,2.8,1.9,4.5,1.9c1.8,0,3.4-0.6,4.7-1.9c1.3-1.3,1.9-2.9,1.9-4.7c0-1.9-0.6-3.4-1.9-4.7
		c-1.2-1.3-2.8-1.9-4.6-1.9c-1.8,0-3.4,0.6-4.6,1.9C82.8,112,82.2,113.6,82.2,115.4z"/>
	<path d="M103.9,106.7v15.1h5.2v2.5h-7.8v-17.6H103.9z"/>
	<path d="M110,115.4c0-2.5,0.9-4.6,2.7-6.4c1.8-1.8,4-2.7,6.5-2.7c2.5,0,4.6,0.9,6.4,2.7c1.8,1.8,2.7,3.9,2.7,6.4
		c0,2.5-0.9,4.7-2.7,6.4c-1.8,1.8-4,2.6-6.6,2.6c-2.3,0-4.3-0.8-6.1-2.4C110.9,120.5,110,118.2,110,115.4z M112.6,115.4
		c0,1.9,0.7,3.5,2,4.8c1.3,1.3,2.8,1.9,4.5,1.9c1.8,0,3.4-0.6,4.7-1.9c1.3-1.3,1.9-2.9,1.9-4.7c0-1.9-0.6-3.4-1.9-4.7
		c-1.2-1.3-2.8-1.9-4.6-1.9c-1.8,0-3.4,0.6-4.6,1.9C113.3,112,112.6,113.6,112.6,115.4z"/>
	<path d="M140.7,115.1h7.3v0.6c0,1.3-0.2,2.5-0.5,3.5c-0.3,0.9-0.8,1.8-1.5,2.6c-1.6,1.8-3.7,2.8-6.2,2.8c-2.5,0-4.6-0.9-6.3-2.7
		c-1.8-1.8-2.6-3.9-2.6-6.4c0-2.5,0.9-4.7,2.7-6.5c1.8-1.8,3.9-2.7,6.5-2.7c1.4,0,2.7,0.3,3.8,0.8c1.1,0.6,2.3,1.5,3.4,2.7l-1.9,1.8
		c-1.4-1.9-3.2-2.9-5.3-2.9c-1.9,0-3.4,0.6-4.7,1.9c-1.3,1.3-1.9,2.8-1.9,4.7c0,2,0.7,3.6,2.1,4.8c1.3,1.2,2.7,1.8,4.3,1.8
		c1.3,0,2.5-0.4,3.5-1.3c1-0.9,1.6-1.9,1.7-3.2h-4.4V115.1z"/>
	<path d="M154.2,116.7l-5.7-10h3l4,7l4-7h3l-5.8,10v7.6h-2.6V116.7z"/>
	<path d="M173.1,112v12.3h-1.9V112H173.1z"/>
	<path d="M176,124.3v-13.1l9,9.4V112h1.9v13l-9-9.4v8.6H176z"/>
	<path d="M200.3,113.7v10.5h-1.9v-10.5h-2.8V112h7.5v1.7H200.3z"/>
	<path d="M206.7,116.8h5.3V112h1.9v12.3H212v-5.7h-5.3v5.7h-1.9V112h1.9V116.8z"/>
	<path d="M223.6,113.7h-4.9v3h4.8v1.7h-4.8v4.1h4.9v1.7h-6.8V112h6.8V113.7z"/>
	<path d="M236.5,113.6h7.6v-6.9h2.6v17.6H244v-8.2h-7.6v8.2h-2.6v-17.6h2.6V113.6z"/>
	<path d="M253.5,106.7v10.6c0,1.5,0.2,2.6,0.7,3.3c0.7,1,1.8,1.5,3.1,1.5c1.3,0,2.4-0.5,3.1-1.5c0.5-0.7,0.7-1.8,0.7-3.3v-10.6h2.6
		V118c0,1.8-0.6,3.4-1.7,4.6c-1.3,1.3-2.9,2-4.8,2c-1.9,0-3.5-0.7-4.8-2c-1.2-1.2-1.7-2.7-1.7-4.6v-11.3H253.5z"/>
	<path d="M299.9,120h-7.5l-2,4.3h-2.9l8.7-18.7l8.4,18.7h-2.9L299.9,120z M298.8,117.5l-2.6-6l-2.7,6H298.8z"/>
	<path d="M328.2,106.7v17.6h-2.7v-17.6H328.2z"/>
	<path d="M337.2,109.2v15.1h-2.6v-15.1h-4v-2.5h10.7v2.5H337.2z"/>
	<path d="M346.3,106.7v17.6h-2.7v-17.6H346.3z"/>
	<path d="M360.2,109.2h-7v4.2h6.8v2.5h-6.8v5.9h7v2.5h-9.7v-17.6h9.7V109.2z"/>
	<path d="M373.6,109.3l-2.1,1.3c-0.4-0.7-0.8-1.2-1.1-1.4c-0.4-0.2-0.9-0.4-1.5-0.4c-0.7,0-1.3,0.2-1.8,0.6
		c-0.5,0.4-0.7,0.9-0.7,1.5c0,0.9,0.6,1.5,1.9,2.1l1.8,0.7c1.4,0.6,2.5,1.3,3.1,2.1c0.7,0.8,1,1.8,1,3.1c0,1.6-0.5,3-1.6,4
		c-1.1,1.1-2.4,1.6-4,1.6c-1.5,0-2.8-0.5-3.8-1.4c-1-0.9-1.6-2.2-1.8-3.8l2.7-0.6c0.1,1,0.3,1.7,0.6,2.1c0.5,0.8,1.3,1.1,2.4,1.1
		c0.8,0,1.5-0.3,2.1-0.8c0.5-0.6,0.8-1.3,0.8-2.1c0-0.3,0-0.7-0.1-0.9c-0.1-0.3-0.2-0.5-0.4-0.8c-0.2-0.2-0.5-0.5-0.8-0.7
		c-0.3-0.2-0.7-0.4-1.1-0.6l-1.7-0.7c-2.4-1-3.6-2.5-3.6-4.5c0-1.3,0.5-2.4,1.5-3.3c1-0.9,2.3-1.3,3.8-1.3
		C370.9,106.4,372.4,107.3,373.6,109.3z"/>
	<polygon points="319.6,106.7 319.6,120.2 309.8,106.7 306.8,106.7 306.8,124.3 309.4,124.3 309.4,110.8 319.3,124.3 322.2,124.3 
		322.2,106.7 	"/>
	<polygon points="73.4,106.7 73.4,120.2 63.6,106.7 60.6,106.7 60.6,124.3 63.2,124.3 63.2,110.8 73.1,124.3 76,124.3 76,106.7 	"/>
	<path d="M31.7,92h-7.5l-2,4.3h-2.9l8.7-18.7l8.4,18.7h-2.9L31.7,92z M30.6,89.6l-2.6-6l-2.7,6H30.6z"/>
	<path d="M44.6,88.8l5.4,7.5h-3.2l-5-7.2h-0.5v7.2h-2.6V78.8h3.1c2.3,0,4,0.4,5,1.3c1.1,1,1.7,2.3,1.7,3.8c0,1.2-0.4,2.3-1.1,3.2
		C46.7,88,45.7,88.6,44.6,88.8z M41.3,86.8h0.8c2.5,0,3.8-1,3.8-2.9c0-1.8-1.2-2.7-3.7-2.7h-0.9V86.8z"/>
	<path d="M55.4,88.7l-5.7-10h3l4,7l4-7h3l-5.8,10v7.6h-2.6V88.7z"/>
	<path d="M68.5,78.8v15.1h5.2v2.5h-7.8V78.8H68.5z"/>
	<path d="M87.5,92h-7.5l-2,4.3h-2.9l8.7-18.7l8.4,18.7h-2.9L87.5,92z M86.4,89.6l-2.6-6l-2.7,6H86.4z"/>
	<path d="M114.1,96.3V78.8h3.7c1.8,0,3.2,0.2,4.2,0.5c1.1,0.3,2.1,0.9,3,1.7c1.8,1.7,2.7,3.8,2.7,6.5c0,2.7-0.9,4.9-2.8,6.5
		c-0.9,0.8-1.9,1.4-3,1.7c-1,0.3-2.3,0.5-4.1,0.5H114.1z M116.7,93.8h1.2c1.2,0,2.2-0.1,3-0.4c0.8-0.3,1.5-0.7,2.1-1.3
		c1.3-1.2,2-2.7,2-4.7c0-1.9-0.6-3.5-1.9-4.7c-1.2-1.1-2.9-1.6-5.1-1.6h-1.2V93.8z"/>
	<path d="M140.8,78.8v17.6h-2.6V78.8H140.8z"/>
	<path d="M174.6,81.4l-2.1,1.3c-0.4-0.7-0.8-1.2-1.1-1.4c-0.4-0.2-0.9-0.4-1.5-0.4c-0.7,0-1.3,0.2-1.8,0.6c-0.5,0.4-0.7,0.9-0.7,1.5
		c0,0.9,0.6,1.5,1.9,2.1l1.8,0.7c1.4,0.6,2.5,1.3,3.1,2.1c0.7,0.8,1,1.8,1,3.1c0,1.6-0.5,3-1.6,4c-1.1,1.1-2.4,1.6-4,1.6
		c-1.5,0-2.8-0.5-3.8-1.4c-1-0.9-1.6-2.2-1.8-3.8l2.7-0.6c0.1,1,0.3,1.7,0.6,2.1c0.5,0.8,1.3,1.1,2.4,1.1c0.8,0,1.5-0.3,2.1-0.8
		c0.5-0.6,0.8-1.3,0.8-2.1c0-0.3,0-0.7-0.1-0.9c-0.1-0.3-0.2-0.5-0.4-0.8c-0.2-0.2-0.5-0.5-0.8-0.7c-0.3-0.2-0.7-0.4-1.1-0.6
		l-1.7-0.7c-2.4-1-3.6-2.5-3.6-4.5c0-1.3,0.5-2.4,1.5-3.3c1-0.9,2.3-1.3,3.8-1.3C171.9,78.4,173.5,79.4,174.6,81.4z"/>
	<path d="M183.4,81.2v15.1h-2.6V81.2h-4v-2.5h10.7v2.5H183.4z"/>
	<path d="M192.5,78.8v17.6h-2.6V78.8H192.5z"/>
	<path d="M201.5,81.2v15.1h-2.6V81.2h-4v-2.5h10.7v2.5H201.5z"/>
	<path d="M210.6,78.8v10.6c0,1.5,0.2,2.6,0.7,3.3c0.7,1,1.8,1.5,3.1,1.5c1.3,0,2.4-0.5,3.1-1.5c0.5-0.7,0.7-1.8,0.7-3.3V78.8h2.6
		v11.3c0,1.8-0.6,3.4-1.7,4.6c-1.3,1.3-2.9,2-4.8,2c-1.9,0-3.5-0.7-4.8-2c-1.2-1.2-1.7-2.7-1.7-4.6V78.8H210.6z"/>
	<path d="M230,81.2v15.1h-2.6V81.2h-4v-2.5H234v2.5H230z"/>
	<path d="M246,81.2h-7v4.2h6.8v2.5H239v5.9h7v2.5h-9.7V78.8h9.7V81.2z"/>
	<path d="M262.2,85.8h-4.3v3h4.1v1.7h-4.1v5.8h-1.9V84h6.1V85.8z"/>
	<path d="M263.8,90.1c0-1.7,0.6-3.2,1.9-4.5c1.3-1.2,2.8-1.9,4.6-1.9c1.7,0,3.3,0.6,4.5,1.9c1.3,1.3,1.9,2.8,1.9,4.5
		c0,1.8-0.6,3.3-1.9,4.5c-1.3,1.2-2.8,1.9-4.6,1.9c-1.6,0-3-0.5-4.3-1.6C264.5,93.7,263.8,92.1,263.8,90.1z M265.6,90.1
		c0,1.4,0.5,2.5,1.4,3.3c0.9,0.9,2,1.3,3.1,1.3c1.3,0,2.4-0.4,3.3-1.3c0.9-0.9,1.3-2,1.3-3.3c0-1.3-0.4-2.4-1.3-3.3
		c-0.9-0.9-1.9-1.3-3.2-1.3c-1.3,0-2.4,0.4-3.2,1.3C266.1,87.7,265.6,88.8,265.6,90.1z"/>
	<path d="M283.1,91.1l3.8,5.2h-2.3l-3.5-5h-0.3v5h-1.9V84h2.2c1.6,0,2.8,0.3,3.5,0.9c0.8,0.7,1.2,1.6,1.2,2.7c0,0.9-0.2,1.6-0.7,2.2
		C284.6,90.5,283.9,90.9,283.1,91.1z M280.8,89.7h0.6c1.8,0,2.6-0.7,2.6-2c0-1.3-0.9-1.9-2.6-1.9h-0.7V89.7z"/>
	<polygon points="107.2,78.8 107.2,92.2 97.4,78.8 94.4,78.8 94.4,96.3 97.1,96.3 97.1,82.8 106.9,96.3 109.9,96.3 109.9,78.8 	"/>
	<polygon points="157.8,78.8 157.8,92.2 148,78.8 145,78.8 145,96.3 147.7,96.3 147.7,82.8 157.5,96.3 160.5,96.3 160.5,78.8 	"/>
	<polygon points="14.7,78.8 8.8,86.2 3,78.8 0,78.8 0,96.3 2.6,96.3 2.6,82.6 8.8,90.5 15,82.6 15,96.3 17.7,96.3 17.7,78.8 	"/>
	<polygon points="282.4,106.7 276.6,114.2 270.8,106.7 267.8,106.7 267.8,124.3 270.4,124.3 270.4,110.5 276.6,118.5 282.8,110.5 
		282.8,124.3 285.5,124.3 285.5,106.7 	"/>
</g>
<g>
	<path d="M83.9,0v62.5h-9.4V0H83.9z"/>
	<path d="M119.2,8.9v53.6h-9.4V8.9H95.4V0h38.1v8.9H119.2z"/>
	<path d="M154.5,24.4h27V0h9.4v62.5h-9.4V33.3h-27v29.2h-9.4V0h9.4V24.4z"/>
	<polygon points="52.2,0 31.4,26.6 10.7,0 0,0 0,62.5 9.4,62.5 9.4,13.7 31.4,41.9 53.4,13.7 53.4,62.5 62.9,62.5 62.9,0 	"/>
</g>
</svg>
